<!DOCTYPE svg PUBLIC "-//W3C//DTD SVG 1.1//EN" "http://www.w3.org/Graphics/SVG/1.1/DTD/svg11.dtd">
<svg xmlns="http://www.w3.org/2000/svg" class="qr-svg " style="width: 100%; height: auto;" viewBox="0 0 53 53">
<defs><style>rect{shape-rendering:crispEdges}</style></defs>
<path class="qr-4 " stroke="transparent" fill="#fff" fill-opacity="1" d="M16 4 h4 v1 h-4Z M23 4 h2 v1 h-2Z M26 4 h1 v1 h-1Z M30 4 h1 v1 h-1Z M37 4 h1 v1 h-1Z M13 5 h3 v1 h-3Z M18 5 h1 v1 h-1Z M24 5 h3 v1 h-3Z M30 5 h2 v1 h-2Z M33 5 h2 v1 h-2Z M15 6 h2 v1 h-2Z M19 6 h1 v1 h-1Z M23 6 h2 v1 h-2Z M26 6 h1 v1 h-1Z M31 6 h3 v1 h-3Z M35 6 h3 v1 h-3Z M13 7 h3 v1 h-3Z M17 7 h3 v1 h-3Z M21 7 h1 v1 h-1Z M23 7 h5 v1 h-5Z M29 7 h1 v1 h-1Z M32 7 h1 v1 h-1Z M37 7 h1 v1 h-1Z M13 8 h1 v1 h-1Z M15 8 h1 v1 h-1Z M17 8 h4 v1 h-4Z M22 8 h1 v1 h-1Z M31 8 h3 v1 h-3Z M35 8 h1 v1 h-1Z M14 9 h1 v1 h-1Z M17 9 h4 v1 h-4Z M22 9 h2 v1 h-2Z M29 9 h2 v1 h-2Z M32 9 h1 v1 h-1Z M13 11 h1 v1 h-1Z M18 11 h5 v1 h-5Z M30 11 h1 v1 h-1Z M35 11 h1 v1 h-1Z M37 11 h2 v1 h-2Z M40 11 h1 v1 h-1Z M13 12 h1 v1 h-1Z M15 12 h1 v1 h-1Z M17 12 h4 v1 h-4Z M22 12 h1 v1 h-1Z M29 12 h1 v1 h-1Z M31 12 h3 v1 h-3Z M35 12 h6 v1 h-6Z M4 13 h1 v1 h-1Z M8 13 h1 v1 h-1Z M14 13 h1 v1 h-1Z M16 13 h1 v1 h-1Z M18 13 h1 v1 h-1Z M20 13 h2 v1 h-2Z M23 13 h2 v1 h-2Z M27 13 h1 v1 h-1Z M30 13 h1 v1 h-1Z M33 13 h1 v1 h-1Z M36 13 h1 v1 h-1Z M38 13 h1 v1 h-1Z M42 13 h1 v1 h-1Z M45 13 h1 v1 h-1Z M4 14 h1 v1 h-1Z M7 14 h3 v1 h-3Z M11 14 h1 v1 h-1Z M13 14 h1 v1 h-1Z M15 14 h2 v1 h-2Z M19 14 h2 v1 h-2Z M23 14 h2 v1 h-2Z M28 14 h7 v1 h-7Z M36 14 h1 v1 h-1Z M39 14 h1 v1 h-1Z M41 14 h1 v1 h-1Z M43 14 h2 v1 h-2Z M48 14 h1 v1 h-1Z M4 15 h1 v1 h-1Z M6 15 h1 v1 h-1Z M8 15 h1 v1 h-1Z M11 15 h4 v1 h-4Z M17 15 h1 v1 h-1Z M20 15 h3 v1 h-3Z M25 15 h6 v1 h-6Z M32 15 h1 v1 h-1Z M34 15 h1 v1 h-1Z M36 15 h1 v1 h-1Z M38 15 h1 v1 h-1Z M40 15 h3 v1 h-3Z M44 15 h2 v1 h-2Z M47 15 h2 v1 h-2Z M4 16 h2 v1 h-2Z M9 16 h1 v1 h-1Z M12 16 h1 v1 h-1Z M16 16 h1 v1 h-1Z M21 16 h1 v1 h-1Z M23 16 h1 v1 h-1Z M28 16 h1 v1 h-1Z M30 16 h2 v1 h-2Z M33 16 h6 v1 h-6Z M42 16 h2 v1 h-2Z M48 16 h1 v1 h-1Z M7 17 h2 v1 h-2Z M14 17 h1 v1 h-1Z M17 17 h4 v1 h-4Z M22 17 h1 v1 h-1Z M25 17 h1 v1 h-1Z M27 17 h1 v1 h-1Z M29 17 h2 v1 h-2Z M34 17 h1 v1 h-1Z M36 17 h1 v1 h-1Z M38 17 h2 v1 h-2Z M41 17 h2 v1 h-2Z M45 17 h1 v1 h-1Z M47 17 h2 v1 h-2Z M4 18 h3 v1 h-3Z M9 18 h1 v1 h-1Z M11 18 h1 v1 h-1Z M13 18 h1 v1 h-1Z M15 18 h1 v1 h-1Z M19 18 h3 v1 h-3Z M24 18 h1 v1 h-1Z M30 18 h2 v1 h-2Z M33 18 h1 v1 h-1Z M35 18 h4 v1 h-4Z M42 18 h2 v1 h-2Z M45 18 h1 v1 h-1Z M4 19 h5 v1 h-5Z M11 19 h2 v1 h-2Z M16 19 h2 v1 h-2Z M24 19 h2 v1 h-2Z M27 19 h1 v1 h-1Z M30 19 h2 v1 h-2Z M34 19 h2 v1 h-2Z M37 19 h1 v1 h-1Z M39 19 h1 v1 h-1Z M42 19 h2 v1 h-2Z M47 19 h1 v1 h-1Z M4 20 h1 v1 h-1Z M6 20 h2 v1 h-2Z M9 20 h1 v1 h-1Z M14 20 h1 v1 h-1Z M20 20 h2 v1 h-2Z M23 20 h1 v1 h-1Z M26 20 h1 v1 h-1Z M29 20 h1 v1 h-1Z M32 20 h1 v1 h-1Z M34 20 h1 v1 h-1Z M36 20 h1 v1 h-1Z M39 20 h2 v1 h-2Z M42 20 h3 v1 h-3Z M46 20 h1 v1 h-1Z M5 21 h1 v1 h-1Z M7 21 h1 v1 h-1Z M9 21 h1 v1 h-1Z M11 21 h5 v1 h-5Z M17 21 h3 v1 h-3Z M24 21 h2 v1 h-2Z M30 21 h1 v1 h-1Z M33 21 h1 v1 h-1Z M35 21 h4 v1 h-4Z M41 21 h4 v1 h-4Z M46 21 h1 v1 h-1Z M4 22 h3 v1 h-3Z M11 22 h1 v1 h-1Z M14 22 h5 v1 h-5Z M24 22 h4 v1 h-4Z M29 22 h2 v1 h-2Z M34 22 h1 v1 h-1Z M40 22 h2 v1 h-2Z M45 22 h2 v1 h-2Z M48 22 h1 v1 h-1Z M4 23 h1 v1 h-1Z M6 23 h1 v1 h-1Z M9 23 h1 v1 h-1Z M11 23 h1 v1 h-1Z M18 23 h2 v1 h-2Z M23 23 h2 v1 h-2Z M26 23 h1 v1 h-1Z M31 23 h3 v1 h-3Z M35 23 h3 v1 h-3Z M43 23 h2 v1 h-2Z M46 23 h3 v1 h-3Z M4 24 h1 v1 h-1Z M6 24 h2 v1 h-2Z M13 24 h1 v1 h-1Z M17 24 h2 v1 h-2Z M29 24 h1 v1 h-1Z M32 24 h1 v1 h-1Z M39 24 h1 v1 h-1Z M45 24 h1 v1 h-1Z M48 24 h1 v1 h-1Z M6 25 h1 v1 h-1Z M13 25 h1 v1 h-1Z M15 25 h2 v1 h-2Z M18 25 h4 v1 h-4Z M23 25 h1 v1 h-1Z M31 25 h3 v1 h-3Z M35 25 h1 v1 h-1Z M37 25 h1 v1 h-1Z M39 25 h1 v1 h-1Z M45 25 h1 v1 h-1Z M48 25 h1 v1 h-1Z M4 26 h2 v1 h-2Z M16 26 h3 v1 h-3Z M22 26 h2 v1 h-2Z M29 26 h2 v1 h-2Z M32 26 h1 v1 h-1Z M38 26 h1 v1 h-1Z M46 26 h3 v1 h-3Z M4 27 h2 v1 h-2Z M13 27 h1 v1 h-1Z M15 27 h2 v1 h-2Z M18 27 h6 v1 h-6Z M29 27 h1 v1 h-1Z M32 27 h2 v1 h-2Z M35 27 h1 v1 h-1Z M38 27 h1 v1 h-1Z M45 27 h1 v1 h-1Z M48 27 h1 v1 h-1Z M4 28 h2 v1 h-2Z M13 28 h3 v1 h-3Z M17 28 h4 v1 h-4Z M22 28 h2 v1 h-2Z M31 28 h2 v1 h-2Z M36 28 h2 v1 h-2Z M39 28 h1 v1 h-1Z M46 28 h3 v1 h-3Z M4 29 h1 v1 h-1Z M6 29 h2 v1 h-2Z M9 29 h1 v1 h-1Z M12 29 h1 v1 h-1Z M14 29 h1 v1 h-1Z M16 29 h1 v1 h-1Z M18 29 h1 v1 h-1Z M20 29 h2 v1 h-2Z M23 29 h1 v1 h-1Z M25 29 h1 v1 h-1Z M27 29 h1 v1 h-1Z M30 29 h1 v1 h-1Z M36 29 h3 v1 h-3Z M40 29 h2 v1 h-2Z M44 29 h2 v1 h-2Z M4 30 h1 v1 h-1Z M6 30 h1 v1 h-1Z M8 30 h2 v1 h-2Z M11 30 h3 v1 h-3Z M15 30 h2 v1 h-2Z M19 30 h3 v1 h-3Z M23 30 h1 v1 h-1Z M26 30 h1 v1 h-1Z M28 30 h3 v1 h-3Z M32 30 h4 v1 h-4Z M43 30 h2 v1 h-2Z M48 30 h1 v1 h-1Z M7 31 h2 v1 h-2Z M11 31 h1 v1 h-1Z M13 31 h2 v1 h-2Z M16 31 h2 v1 h-2Z M20 31 h1 v1 h-1Z M22 31 h5 v1 h-5Z M29 31 h2 v1 h-2Z M32 31 h1 v1 h-1Z M34 31 h1 v1 h-1Z M36 31 h1 v1 h-1Z M38 31 h1 v1 h-1Z M40 31 h3 v1 h-3Z M44 31 h2 v1 h-2Z M47 31 h2 v1 h-2Z M4 32 h2 v1 h-2Z M8 32 h2 v1 h-2Z M11 32 h2 v1 h-2Z M14 32 h2 v1 h-2Z M19 32 h1 v1 h-1Z M23 32 h2 v1 h-2Z M26 32 h1 v1 h-1Z M30 32 h2 v1 h-2Z M33 32 h8 v1 h-8Z M47 32 h1 v1 h-1Z M4 33 h2 v1 h-2Z M11 33 h2 v1 h-2Z M16 33 h6 v1 h-6Z M23 33 h1 v1 h-1Z M25 33 h3 v1 h-3Z M29 33 h2 v1 h-2Z M34 33 h1 v1 h-1Z M36 33 h1 v1 h-1Z M38 33 h1 v1 h-1Z M40 33 h2 v1 h-2Z M43 33 h6 v1 h-6Z M7 34 h2 v1 h-2Z M11 34 h1 v1 h-1Z M14 34 h3 v1 h-3Z M19 34 h1 v1 h-1Z M21 34 h1 v1 h-1Z M24 34 h4 v1 h-4Z M30 34 h2 v1 h-2Z M33 34 h1 v1 h-1Z M35 34 h4 v1 h-4Z M40 34 h1 v1 h-1Z M42 34 h1 v1 h-1Z M45 34 h2 v1 h-2Z M4 35 h1 v1 h-1Z M7 35 h2 v1 h-2Z M11 35 h1 v1 h-1Z M16 35 h2 v1 h-2Z M19 35 h1 v1 h-1Z M28 35 h2 v1 h-2Z M31 35 h2 v1 h-2Z M35 35 h1 v1 h-1Z M37 35 h1 v1 h-1Z M39 35 h1 v1 h-1Z M41 35 h1 v1 h-1Z M44 35 h2 v1 h-2Z M47 35 h1 v1 h-1Z M5 36 h2 v1 h-2Z M12 36 h1 v1 h-1Z M14 36 h1 v1 h-1Z M20 36 h2 v1 h-2Z M24 36 h5 v1 h-5Z M31 36 h2 v1 h-2Z M36 36 h2 v1 h-2Z M39 36 h4 v1 h-4Z M44 36 h3 v1 h-3Z M5 37 h1 v1 h-1Z M7 37 h2 v1 h-2Z M12 37 h4 v1 h-4Z M17 37 h3 v1 h-3Z M23 37 h1 v1 h-1Z M25 37 h2 v1 h-2Z M28 37 h3 v1 h-3Z M35 37 h1 v1 h-1Z M37 37 h3 v1 h-3Z M42 37 h2 v1 h-2Z M46 37 h2 v1 h-2Z M13 38 h2 v1 h-2Z M17 38 h2 v1 h-2Z M22 38 h2 v1 h-2Z M25 38 h1 v1 h-1Z M29 38 h1 v1 h-1Z M31 38 h3 v1 h-3Z M36 38 h1 v1 h-1Z M39 38 h1 v1 h-1Z M41 38 h2 v1 h-2Z M45 38 h2 v1 h-2Z M48 38 h1 v1 h-1Z M11 39 h5 v1 h-5Z M18 39 h2 v1 h-2Z M21 39 h3 v1 h-3Z M31 39 h3 v1 h-3Z M35 39 h3 v1 h-3Z M40 39 h1 v1 h-1Z M42 39 h2 v1 h-2Z M46 39 h1 v1 h-1Z M48 39 h1 v1 h-1Z M17 40 h2 v1 h-2Z M21 40 h1 v1 h-1Z M29 40 h1 v1 h-1Z M32 40 h1 v1 h-1Z M39 40 h1 v1 h-1Z M45 40 h1 v1 h-1Z M48 40 h1 v1 h-1Z M14 41 h2 v1 h-2Z M18 41 h1 v1 h-1Z M20 41 h1 v1 h-1Z M22 41 h1 v1 h-1Z M31 41 h3 v1 h-3Z M35 41 h1 v1 h-1Z M37 41 h1 v1 h-1Z M46 41 h1 v1 h-1Z M48 41 h1 v1 h-1Z M13 42 h2 v1 h-2Z M17 42 h2 v1 h-2Z M20 42 h1 v1 h-1Z M22 42 h2 v1 h-2Z M29 42 h2 v1 h-2Z M32 42 h1 v1 h-1Z M38 42 h1 v1 h-1Z M46 42 h3 v1 h-3Z M13 43 h3 v1 h-3Z M18 43 h2 v1 h-2Z M21 43 h3 v1 h-3Z M31 43 h1 v1 h-1Z M35 43 h1 v1 h-1Z M37 43 h1 v1 h-1Z M48 43 h1 v1 h-1Z M13 44 h1 v1 h-1Z M15 44 h1 v1 h-1Z M17 44 h4 v1 h-4Z M22 44 h2 v1 h-2Z M30 44 h4 v1 h-4Z M36 44 h3 v1 h-3Z M45 44 h4 v1 h-4Z M13 45 h2 v1 h-2Z M16 45 h1 v1 h-1Z M18 45 h1 v1 h-1Z M20 45 h2 v1 h-2Z M24 45 h2 v1 h-2Z M27 45 h2 v1 h-2Z M30 45 h2 v1 h-2Z M38 45 h2 v1 h-2Z M42 45 h2 v1 h-2Z M45 45 h1 v1 h-1Z M47 45 h2 v1 h-2Z M13 46 h1 v1 h-1Z M15 46 h2 v1 h-2Z M19 46 h3 v1 h-3Z M23 46 h2 v1 h-2Z M26 46 h1 v1 h-1Z M31 46 h1 v1 h-1Z M33 46 h1 v1 h-1Z M40 46 h1 v1 h-1Z M43 46 h2 v1 h-2Z M48 46 h1 v1 h-1Z M13 47 h1 v1 h-1Z M16 47 h2 v1 h-2Z M20 47 h2 v1 h-2Z M23 47 h4 v1 h-4Z M29 47 h2 v1 h-2Z M32 47 h1 v1 h-1Z M34 47 h1 v1 h-1Z M36 47 h1 v1 h-1Z M38 47 h3 v1 h-3Z M42 47 h1 v1 h-1Z M44 47 h2 v1 h-2Z M47 47 h2 v1 h-2Z M13 48 h1 v1 h-1Z M15 48 h1 v1 h-1Z M24 48 h2 v1 h-2Z M27 48 h1 v1 h-1Z M30 48 h2 v1 h-2Z M33 48 h6 v1 h-6Z M40 48 h2 v1 h-2Z M43 48 h2 v1 h-2Z M48 48 h1 v1 h-1Z " /><path class="qr-6 " stroke="transparent" fill="#fff" fill-opacity="1" d="M5 5 h5 v1 h-5Z M43 5 h5 v1 h-5Z M5 6 h1 v1 h-1Z M9 6 h1 v1 h-1Z M43 6 h1 v1 h-1Z M47 6 h1 v1 h-1Z M5 7 h1 v1 h-1Z M9 7 h1 v1 h-1Z M43 7 h1 v1 h-1Z M47 7 h1 v1 h-1Z M5 8 h1 v1 h-1Z M9 8 h1 v1 h-1Z M43 8 h1 v1 h-1Z M47 8 h1 v1 h-1Z M5 9 h5 v1 h-5Z M43 9 h5 v1 h-5Z M5 43 h5 v1 h-5Z M5 44 h1 v1 h-1Z M9 44 h1 v1 h-1Z M5 45 h1 v1 h-1Z M9 45 h1 v1 h-1Z M5 46 h1 v1 h-1Z M9 46 h1 v1 h-1Z M5 47 h5 v1 h-5Z " /><path class="qr-8 " stroke="transparent" fill="#fff" fill-opacity="1" d="M11 4 h1 v1 h-1Z M41 4 h1 v1 h-1Z M11 5 h1 v1 h-1Z M41 5 h1 v1 h-1Z M11 6 h1 v1 h-1Z M41 6 h1 v1 h-1Z M11 7 h1 v1 h-1Z M41 7 h1 v1 h-1Z M11 8 h1 v1 h-1Z M41 8 h1 v1 h-1Z M11 9 h1 v1 h-1Z M41 9 h1 v1 h-1Z M11 10 h1 v1 h-1Z M41 10 h1 v1 h-1Z M4 11 h8 v1 h-8Z M41 11 h8 v1 h-8Z M4 41 h8 v1 h-8Z M11 42 h1 v1 h-1Z M11 43 h1 v1 h-1Z M11 44 h1 v1 h-1Z M11 45 h1 v1 h-1Z M11 46 h1 v1 h-1Z M11 47 h1 v1 h-1Z M11 48 h1 v1 h-1Z " /><path class="qr-10 " stroke="transparent" fill="#fff" fill-opacity="1" d="M25 9 h3 v1 h-3Z M25 10 h1 v1 h-1Z M27 10 h1 v1 h-1Z M25 11 h3 v1 h-3Z M9 25 h3 v1 h-3Z M25 25 h3 v1 h-3Z M41 25 h3 v1 h-3Z M9 26 h1 v1 h-1Z M11 26 h1 v1 h-1Z M25 26 h1 v1 h-1Z M27 26 h1 v1 h-1Z M41 26 h1 v1 h-1Z M43 26 h1 v1 h-1Z M9 27 h3 v1 h-3Z M25 27 h3 v1 h-3Z M41 27 h3 v1 h-3Z M25 41 h3 v1 h-3Z M41 41 h3 v1 h-3Z M25 42 h1 v1 h-1Z M27 42 h1 v1 h-1Z M41 42 h1 v1 h-1Z M43 42 h1 v1 h-1Z M25 43 h3 v1 h-3Z M41 43 h3 v1 h-3Z " /><path class="qr-12 " stroke="transparent" fill="#fff" fill-opacity="1" d="M13 10 h1 v1 h-1Z M15 10 h1 v1 h-1Z M17 10 h1 v1 h-1Z M19 10 h1 v1 h-1Z M21 10 h1 v1 h-1Z M23 10 h1 v1 h-1Z M29 10 h1 v1 h-1Z M31 10 h1 v1 h-1Z M33 10 h1 v1 h-1Z M35 10 h1 v1 h-1Z M37 10 h1 v1 h-1Z M39 10 h1 v1 h-1Z M10 13 h1 v1 h-1Z M10 15 h1 v1 h-1Z M10 17 h1 v1 h-1Z M10 19 h1 v1 h-1Z M10 21 h1 v1 h-1Z M10 23 h1 v1 h-1Z M10 29 h1 v1 h-1Z M10 31 h1 v1 h-1Z M10 33 h1 v1 h-1Z M10 35 h1 v1 h-1Z M10 37 h1 v1 h-1Z M10 39 h1 v1 h-1Z " /><path class="qr-14 " stroke="transparent" fill="#fff" fill-opacity="1" d="M12 4 h1 v1 h-1Z M12 6 h1 v1 h-1Z M12 8 h1 v1 h-1Z M12 11 h1 v1 h-1Z M9 12 h1 v1 h-1Z M42 12 h1 v1 h-1Z M44 12 h1 v1 h-1Z M46 12 h1 v1 h-1Z M48 12 h1 v1 h-1Z M12 43 h1 v1 h-1Z " /><path class="qr-16 " stroke="transparent" fill="#fff" fill-opacity="1" d="M38 4 h2 v1 h-2Z M38 5 h1 v1 h-1Z M40 5 h1 v1 h-1Z M38 6 h1 v1 h-1Z M40 6 h1 v1 h-1Z M38 7 h1 v1 h-1Z M38 9 h3 v1 h-3Z M4 38 h4 v1 h-4Z M9 38 h1 v1 h-1Z M4 39 h1 v1 h-1Z M9 39 h1 v1 h-1Z M5 40 h2 v1 h-2Z M9 40 h1 v1 h-1Z " /><path class="qr-18 " stroke="transparent" fill="#fff" fill-opacity="1" d="M0 0 h53 v1 h-53Z M0 1 h53 v1 h-53Z M0 2 h53 v1 h-53Z M0 3 h53 v1 h-53Z M0 4 h4 v1 h-4Z M49 4 h4 v1 h-4Z M0 5 h4 v1 h-4Z M49 5 h4 v1 h-4Z M0 6 h4 v1 h-4Z M49 6 h4 v1 h-4Z M0 7 h4 v1 h-4Z M49 7 h4 v1 h-4Z M0 8 h4 v1 h-4Z M49 8 h4 v1 h-4Z M0 9 h4 v1 h-4Z M49 9 h4 v1 h-4Z M0 10 h4 v1 h-4Z M49 10 h4 v1 h-4Z M0 11 h4 v1 h-4Z M49 11 h4 v1 h-4Z M0 12 h4 v1 h-4Z M49 12 h4 v1 h-4Z M0 13 h4 v1 h-4Z M49 13 h4 v1 h-4Z M0 14 h4 v1 h-4Z M49 14 h4 v1 h-4Z M0 15 h4 v1 h-4Z M49 15 h4 v1 h-4Z M0 16 h4 v1 h-4Z M49 16 h4 v1 h-4Z M0 17 h4 v1 h-4Z M49 17 h4 v1 h-4Z M0 18 h4 v1 h-4Z M49 18 h4 v1 h-4Z M0 19 h4 v1 h-4Z M49 19 h4 v1 h-4Z M0 20 h4 v1 h-4Z M49 20 h4 v1 h-4Z M0 21 h4 v1 h-4Z M49 21 h4 v1 h-4Z M0 22 h4 v1 h-4Z M49 22 h4 v1 h-4Z M0 23 h4 v1 h-4Z M49 23 h4 v1 h-4Z M0 24 h4 v1 h-4Z M49 24 h4 v1 h-4Z M0 25 h4 v1 h-4Z M49 25 h4 v1 h-4Z M0 26 h4 v1 h-4Z M49 26 h4 v1 h-4Z M0 27 h4 v1 h-4Z M49 27 h4 v1 h-4Z M0 28 h4 v1 h-4Z M49 28 h4 v1 h-4Z M0 29 h4 v1 h-4Z M49 29 h4 v1 h-4Z M0 30 h4 v1 h-4Z M49 30 h4 v1 h-4Z M0 31 h4 v1 h-4Z M49 31 h4 v1 h-4Z M0 32 h4 v1 h-4Z M49 32 h4 v1 h-4Z M0 33 h4 v1 h-4Z M49 33 h4 v1 h-4Z M0 34 h4 v1 h-4Z M49 34 h4 v1 h-4Z M0 35 h4 v1 h-4Z M49 35 h4 v1 h-4Z M0 36 h4 v1 h-4Z M49 36 h4 v1 h-4Z M0 37 h4 v1 h-4Z M49 37 h4 v1 h-4Z M0 38 h4 v1 h-4Z M49 38 h4 v1 h-4Z M0 39 h4 v1 h-4Z M49 39 h4 v1 h-4Z M0 40 h4 v1 h-4Z M49 40 h4 v1 h-4Z M0 41 h4 v1 h-4Z M49 41 h4 v1 h-4Z M0 42 h4 v1 h-4Z M49 42 h4 v1 h-4Z M0 43 h4 v1 h-4Z M49 43 h4 v1 h-4Z M0 44 h4 v1 h-4Z M49 44 h4 v1 h-4Z M0 45 h4 v1 h-4Z M49 45 h4 v1 h-4Z M0 46 h4 v1 h-4Z M49 46 h4 v1 h-4Z M0 47 h4 v1 h-4Z M49 47 h4 v1 h-4Z M0 48 h4 v1 h-4Z M49 48 h4 v1 h-4Z M0 49 h53 v1 h-53Z M0 50 h53 v1 h-53Z M0 51 h53 v1 h-53Z M0 52 h53 v1 h-53Z " /><path class="qr-512 " stroke="transparent" fill="#000" fill-opacity="1" d="M12 41 h1 v1 h-1Z " /><path class="qr-1024 " stroke="transparent" fill="#000" fill-opacity="1" d="M13 4 h3 v1 h-3Z M20 4 h3 v1 h-3Z M25 4 h1 v1 h-1Z M27 4 h3 v1 h-3Z M31 4 h6 v1 h-6Z M16 5 h2 v1 h-2Z M19 5 h5 v1 h-5Z M27 5 h3 v1 h-3Z M32 5 h1 v1 h-1Z M35 5 h3 v1 h-3Z M13 6 h2 v1 h-2Z M17 6 h2 v1 h-2Z M20 6 h3 v1 h-3Z M25 6 h1 v1 h-1Z M27 6 h4 v1 h-4Z M34 6 h1 v1 h-1Z M16 7 h1 v1 h-1Z M20 7 h1 v1 h-1Z M22 7 h1 v1 h-1Z M28 7 h1 v1 h-1Z M30 7 h2 v1 h-2Z M33 7 h4 v1 h-4Z M14 8 h1 v1 h-1Z M16 8 h1 v1 h-1Z M21 8 h1 v1 h-1Z M23 8 h1 v1 h-1Z M29 8 h2 v1 h-2Z M34 8 h1 v1 h-1Z M36 8 h2 v1 h-2Z M13 9 h1 v1 h-1Z M15 9 h2 v1 h-2Z M21 9 h1 v1 h-1Z M31 9 h1 v1 h-1Z M33 9 h5 v1 h-5Z M14 11 h4 v1 h-4Z M23 11 h1 v1 h-1Z M29 11 h1 v1 h-1Z M31 11 h4 v1 h-4Z M36 11 h1 v1 h-1Z M39 11 h1 v1 h-1Z M14 12 h1 v1 h-1Z M16 12 h1 v1 h-1Z M21 12 h1 v1 h-1Z M23 12 h1 v1 h-1Z M30 12 h1 v1 h-1Z M34 12 h1 v1 h-1Z M5 13 h3 v1 h-3Z M9 13 h1 v1 h-1Z M11 13 h3 v1 h-3Z M15 13 h1 v1 h-1Z M17 13 h1 v1 h-1Z M19 13 h1 v1 h-1Z M22 13 h1 v1 h-1Z M25 13 h2 v1 h-2Z M28 13 h2 v1 h-2Z M31 13 h2 v1 h-2Z M34 13 h2 v1 h-2Z M37 13 h1 v1 h-1Z M39 13 h3 v1 h-3Z M43 13 h2 v1 h-2Z M46 13 h3 v1 h-3Z M5 14 h2 v1 h-2Z M12 14 h1 v1 h-1Z M14 14 h1 v1 h-1Z M17 14 h2 v1 h-2Z M21 14 h2 v1 h-2Z M25 14 h3 v1 h-3Z M35 14 h1 v1 h-1Z M37 14 h2 v1 h-2Z M40 14 h1 v1 h-1Z M42 14 h1 v1 h-1Z M45 14 h3 v1 h-3Z M5 15 h1 v1 h-1Z M7 15 h1 v1 h-1Z M9 15 h1 v1 h-1Z M15 15 h2 v1 h-2Z M18 15 h2 v1 h-2Z M23 15 h2 v1 h-2Z M31 15 h1 v1 h-1Z M33 15 h1 v1 h-1Z M35 15 h1 v1 h-1Z M37 15 h1 v1 h-1Z M39 15 h1 v1 h-1Z M43 15 h1 v1 h-1Z M46 15 h1 v1 h-1Z M6 16 h3 v1 h-3Z M11 16 h1 v1 h-1Z M13 16 h3 v1 h-3Z M17 16 h4 v1 h-4Z M22 16 h1 v1 h-1Z M24 16 h4 v1 h-4Z M29 16 h1 v1 h-1Z M32 16 h1 v1 h-1Z M39 16 h3 v1 h-3Z M44 16 h4 v1 h-4Z M4 17 h3 v1 h-3Z M9 17 h1 v1 h-1Z M11 17 h3 v1 h-3Z M15 17 h2 v1 h-2Z M21 17 h1 v1 h-1Z M23 17 h2 v1 h-2Z M26 17 h1 v1 h-1Z M28 17 h1 v1 h-1Z M31 17 h3 v1 h-3Z M35 17 h1 v1 h-1Z M37 17 h1 v1 h-1Z M40 17 h1 v1 h-1Z M43 17 h2 v1 h-2Z M46 17 h1 v1 h-1Z M7 18 h2 v1 h-2Z M12 18 h1 v1 h-1Z M14 18 h1 v1 h-1Z M16 18 h3 v1 h-3Z M22 18 h2 v1 h-2Z M25 18 h5 v1 h-5Z M32 18 h1 v1 h-1Z M34 18 h1 v1 h-1Z M39 18 h3 v1 h-3Z M44 18 h1 v1 h-1Z M46 18 h3 v1 h-3Z M9 19 h1 v1 h-1Z M13 19 h3 v1 h-3Z M18 19 h6 v1 h-6Z M26 19 h1 v1 h-1Z M28 19 h2 v1 h-2Z M32 19 h2 v1 h-2Z M36 19 h1 v1 h-1Z M38 19 h1 v1 h-1Z M40 19 h2 v1 h-2Z M44 19 h3 v1 h-3Z M48 19 h1 v1 h-1Z M5 20 h1 v1 h-1Z M8 20 h1 v1 h-1Z M11 20 h3 v1 h-3Z M15 20 h5 v1 h-5Z M22 20 h1 v1 h-1Z M24 20 h2 v1 h-2Z M27 20 h2 v1 h-2Z M30 20 h2 v1 h-2Z M33 20 h1 v1 h-1Z M35 20 h1 v1 h-1Z M37 20 h2 v1 h-2Z M41 20 h1 v1 h-1Z M45 20 h1 v1 h-1Z M47 20 h2 v1 h-2Z M4 21 h1 v1 h-1Z M6 21 h1 v1 h-1Z M8 21 h1 v1 h-1Z M16 21 h1 v1 h-1Z M20 21 h4 v1 h-4Z M26 21 h4 v1 h-4Z M31 21 h2 v1 h-2Z M34 21 h1 v1 h-1Z M39 21 h2 v1 h-2Z M45 21 h1 v1 h-1Z M47 21 h2 v1 h-2Z M7 22 h3 v1 h-3Z M12 22 h2 v1 h-2Z M19 22 h5 v1 h-5Z M28 22 h1 v1 h-1Z M31 22 h3 v1 h-3Z M35 22 h5 v1 h-5Z M42 22 h3 v1 h-3Z M47 22 h1 v1 h-1Z M5 23 h1 v1 h-1Z M7 23 h2 v1 h-2Z M12 23 h6 v1 h-6Z M20 23 h3 v1 h-3Z M25 23 h1 v1 h-1Z M27 23 h4 v1 h-4Z M34 23 h1 v1 h-1Z M38 23 h5 v1 h-5Z M45 23 h1 v1 h-1Z M5 24 h1 v1 h-1Z M14 24 h3 v1 h-3Z M19 24 h5 v1 h-5Z M30 24 h2 v1 h-2Z M33 24 h6 v1 h-6Z M46 24 h2 v1 h-2Z M4 25 h2 v1 h-2Z M7 25 h1 v1 h-1Z M14 25 h1 v1 h-1Z M17 25 h1 v1 h-1Z M22 25 h1 v1 h-1Z M29 25 h2 v1 h-2Z M34 25 h1 v1 h-1Z M36 25 h1 v1 h-1Z M38 25 h1 v1 h-1Z M46 25 h2 v1 h-2Z M6 26 h2 v1 h-2Z M13 26 h3 v1 h-3Z M19 26 h3 v1 h-3Z M31 26 h1 v1 h-1Z M33 26 h5 v1 h-5Z M39 26 h1 v1 h-1Z M45 26 h1 v1 h-1Z M6 27 h2 v1 h-2Z M14 27 h1 v1 h-1Z M17 27 h1 v1 h-1Z M30 27 h2 v1 h-2Z M34 27 h1 v1 h-1Z M36 27 h2 v1 h-2Z M39 27 h1 v1 h-1Z M46 27 h2 v1 h-2Z M6 28 h2 v1 h-2Z M16 28 h1 v1 h-1Z M21 28 h1 v1 h-1Z M29 28 h2 v1 h-2Z M33 28 h3 v1 h-3Z M38 28 h1 v1 h-1Z M45 28 h1 v1 h-1Z M5 29 h1 v1 h-1Z M8 29 h1 v1 h-1Z M11 29 h1 v1 h-1Z M13 29 h1 v1 h-1Z M15 29 h1 v1 h-1Z M17 29 h1 v1 h-1Z M19 29 h1 v1 h-1Z M22 29 h1 v1 h-1Z M24 29 h1 v1 h-1Z M26 29 h1 v1 h-1Z M28 29 h2 v1 h-2Z M31 29 h5 v1 h-5Z M39 29 h1 v1 h-1Z M42 29 h2 v1 h-2Z M46 29 h3 v1 h-3Z M5 30 h1 v1 h-1Z M7 30 h1 v1 h-1Z M14 30 h1 v1 h-1Z M17 30 h2 v1 h-2Z M22 30 h1 v1 h-1Z M24 30 h2 v1 h-2Z M27 30 h1 v1 h-1Z M31 30 h1 v1 h-1Z M36 30 h7 v1 h-7Z M45 30 h3 v1 h-3Z M4 31 h3 v1 h-3Z M9 31 h1 v1 h-1Z M12 31 h1 v1 h-1Z M15 31 h1 v1 h-1Z M18 31 h2 v1 h-2Z M21 31 h1 v1 h-1Z M27 31 h2 v1 h-2Z M31 31 h1 v1 h-1Z M33 31 h1 v1 h-1Z M35 31 h1 v1 h-1Z M37 31 h1 v1 h-1Z M39 31 h1 v1 h-1Z M43 31 h1 v1 h-1Z M46 31 h1 v1 h-1Z M6 32 h2 v1 h-2Z M13 32 h1 v1 h-1Z M16 32 h3 v1 h-3Z M20 32 h3 v1 h-3Z M25 32 h1 v1 h-1Z M27 32 h3 v1 h-3Z M32 32 h1 v1 h-1Z M41 32 h6 v1 h-6Z M48 32 h1 v1 h-1Z M6 33 h4 v1 h-4Z M13 33 h3 v1 h-3Z M22 33 h1 v1 h-1Z M24 33 h1 v1 h-1Z M28 33 h1 v1 h-1Z M31 33 h3 v1 h-3Z M35 33 h1 v1 h-1Z M37 33 h1 v1 h-1Z M39 33 h1 v1 h-1Z M42 33 h1 v1 h-1Z M4 34 h3 v1 h-3Z M9 34 h1 v1 h-1Z M12 34 h2 v1 h-2Z M17 34 h2 v1 h-2Z M20 34 h1 v1 h-1Z M22 34 h2 v1 h-2Z M28 34 h2 v1 h-2Z M32 34 h1 v1 h-1Z M34 34 h1 v1 h-1Z M39 34 h1 v1 h-1Z M41 34 h1 v1 h-1Z M43 34 h2 v1 h-2Z M47 34 h2 v1 h-2Z M5 35 h2 v1 h-2Z M9 35 h1 v1 h-1Z M12 35 h4 v1 h-4Z M18 35 h1 v1 h-1Z M20 35 h8 v1 h-8Z M30 35 h1 v1 h-1Z M33 35 h2 v1 h-2Z M36 35 h1 v1 h-1Z M38 35 h1 v1 h-1Z M40 35 h1 v1 h-1Z M42 35 h2 v1 h-2Z M46 35 h1 v1 h-1Z M48 35 h1 v1 h-1Z M4 36 h1 v1 h-1Z M7 36 h3 v1 h-3Z M11 36 h1 v1 h-1Z M13 36 h1 v1 h-1Z M15 36 h5 v1 h-5Z M22 36 h2 v1 h-2Z M29 36 h2 v1 h-2Z M33 36 h3 v1 h-3Z M38 36 h1 v1 h-1Z M43 36 h1 v1 h-1Z M47 36 h2 v1 h-2Z M4 37 h1 v1 h-1Z M6 37 h1 v1 h-1Z M9 37 h1 v1 h-1Z M11 37 h1 v1 h-1Z M16 37 h1 v1 h-1Z M20 37 h3 v1 h-3Z M24 37 h1 v1 h-1Z M27 37 h1 v1 h-1Z M31 37 h4 v1 h-4Z M36 37 h1 v1 h-1Z M40 37 h2 v1 h-2Z M44 37 h2 v1 h-2Z M48 37 h1 v1 h-1Z M11 38 h2 v1 h-2Z M15 38 h2 v1 h-2Z M19 38 h3 v1 h-3Z M24 38 h1 v1 h-1Z M26 38 h3 v1 h-3Z M30 38 h1 v1 h-1Z M34 38 h2 v1 h-2Z M37 38 h2 v1 h-2Z M40 38 h1 v1 h-1Z M43 38 h2 v1 h-2Z M47 38 h1 v1 h-1Z M16 39 h2 v1 h-2Z M20 39 h1 v1 h-1Z M24 39 h7 v1 h-7Z M34 39 h1 v1 h-1Z M38 39 h2 v1 h-2Z M41 39 h1 v1 h-1Z M44 39 h2 v1 h-2Z M47 39 h1 v1 h-1Z M11 40 h6 v1 h-6Z M19 40 h2 v1 h-2Z M22 40 h2 v1 h-2Z M30 40 h2 v1 h-2Z M33 40 h6 v1 h-6Z M46 40 h2 v1 h-2Z M13 41 h1 v1 h-1Z M16 41 h2 v1 h-2Z M19 41 h1 v1 h-1Z M21 41 h1 v1 h-1Z M23 41 h1 v1 h-1Z M29 41 h2 v1 h-2Z M34 41 h1 v1 h-1Z M36 41 h1 v1 h-1Z M38 41 h2 v1 h-2Z M45 41 h1 v1 h-1Z M47 41 h1 v1 h-1Z M15 42 h2 v1 h-2Z M19 42 h1 v1 h-1Z M21 42 h1 v1 h-1Z M31 42 h1 v1 h-1Z M33 42 h5 v1 h-5Z M39 42 h1 v1 h-1Z M45 42 h1 v1 h-1Z M16 43 h2 v1 h-2Z M20 43 h1 v1 h-1Z M29 43 h2 v1 h-2Z M32 43 h3 v1 h-3Z M36 43 h1 v1 h-1Z M38 43 h2 v1 h-2Z M45 43 h3 v1 h-3Z M14 44 h1 v1 h-1Z M16 44 h1 v1 h-1Z M21 44 h1 v1 h-1Z M29 44 h1 v1 h-1Z M34 44 h2 v1 h-2Z M39 44 h1 v1 h-1Z M15 45 h1 v1 h-1Z M17 45 h1 v1 h-1Z M19 45 h1 v1 h-1Z M22 45 h2 v1 h-2Z M26 45 h1 v1 h-1Z M29 45 h1 v1 h-1Z M32 45 h6 v1 h-6Z M40 45 h2 v1 h-2Z M44 45 h1 v1 h-1Z M46 45 h1 v1 h-1Z M14 46 h1 v1 h-1Z M17 46 h2 v1 h-2Z M22 46 h1 v1 h-1Z M25 46 h1 v1 h-1Z M27 46 h4 v1 h-4Z M32 46 h1 v1 h-1Z M34 46 h6 v1 h-6Z M41 46 h2 v1 h-2Z M45 46 h3 v1 h-3Z M14 47 h2 v1 h-2Z M18 47 h2 v1 h-2Z M22 47 h1 v1 h-1Z M27 47 h2 v1 h-2Z M31 47 h1 v1 h-1Z M33 47 h1 v1 h-1Z M35 47 h1 v1 h-1Z M37 47 h1 v1 h-1Z M41 47 h1 v1 h-1Z M43 47 h1 v1 h-1Z M46 47 h1 v1 h-1Z M14 48 h1 v1 h-1Z M16 48 h8 v1 h-8Z M26 48 h1 v1 h-1Z M28 48 h2 v1 h-2Z M32 48 h1 v1 h-1Z M39 48 h1 v1 h-1Z M42 48 h1 v1 h-1Z M45 48 h3 v1 h-3Z " /><path class="qr-1536 " stroke="transparent" fill="#000" fill-opacity="1" d="M4 4 h7 v1 h-7Z M42 4 h7 v1 h-7Z M4 5 h1 v1 h-1Z M10 5 h1 v1 h-1Z M42 5 h1 v1 h-1Z M48 5 h1 v1 h-1Z M4 6 h1 v1 h-1Z M10 6 h1 v1 h-1Z M42 6 h1 v1 h-1Z M48 6 h1 v1 h-1Z M4 7 h1 v1 h-1Z M10 7 h1 v1 h-1Z M42 7 h1 v1 h-1Z M48 7 h1 v1 h-1Z M4 8 h1 v1 h-1Z M10 8 h1 v1 h-1Z M42 8 h1 v1 h-1Z M48 8 h1 v1 h-1Z M4 9 h1 v1 h-1Z M10 9 h1 v1 h-1Z M42 9 h1 v1 h-1Z M48 9 h1 v1 h-1Z M4 10 h7 v1 h-7Z M42 10 h7 v1 h-7Z M4 42 h7 v1 h-7Z M4 43 h1 v1 h-1Z M10 43 h1 v1 h-1Z M4 44 h1 v1 h-1Z M10 44 h1 v1 h-1Z M4 45 h1 v1 h-1Z M10 45 h1 v1 h-1Z M4 46 h1 v1 h-1Z M10 46 h1 v1 h-1Z M4 47 h1 v1 h-1Z M10 47 h1 v1 h-1Z M4 48 h7 v1 h-7Z " /><path class="qr-2560 " stroke="transparent" fill="#000" fill-opacity="1" d="M24 8 h5 v1 h-5Z M24 9 h1 v1 h-1Z M28 9 h1 v1 h-1Z M24 10 h1 v1 h-1Z M26 10 h1 v1 h-1Z M28 10 h1 v1 h-1Z M24 11 h1 v1 h-1Z M28 11 h1 v1 h-1Z M24 12 h5 v1 h-5Z M8 24 h5 v1 h-5Z M24 24 h5 v1 h-5Z M40 24 h5 v1 h-5Z M8 25 h1 v1 h-1Z M12 25 h1 v1 h-1Z M24 25 h1 v1 h-1Z M28 25 h1 v1 h-1Z M40 25 h1 v1 h-1Z M44 25 h1 v1 h-1Z M8 26 h1 v1 h-1Z M10 26 h1 v1 h-1Z M12 26 h1 v1 h-1Z M24 26 h1 v1 h-1Z M26 26 h1 v1 h-1Z M28 26 h1 v1 h-1Z M40 26 h1 v1 h-1Z M42 26 h1 v1 h-1Z M44 26 h1 v1 h-1Z M8 27 h1 v1 h-1Z M12 27 h1 v1 h-1Z M24 27 h1 v1 h-1Z M28 27 h1 v1 h-1Z M40 27 h1 v1 h-1Z M44 27 h1 v1 h-1Z M8 28 h5 v1 h-5Z M24 28 h5 v1 h-5Z M40 28 h5 v1 h-5Z M24 40 h5 v1 h-5Z M40 40 h5 v1 h-5Z M24 41 h1 v1 h-1Z M28 41 h1 v1 h-1Z M40 41 h1 v1 h-1Z M44 41 h1 v1 h-1Z M24 42 h1 v1 h-1Z M26 42 h1 v1 h-1Z M28 42 h1 v1 h-1Z M40 42 h1 v1 h-1Z M42 42 h1 v1 h-1Z M44 42 h1 v1 h-1Z M24 43 h1 v1 h-1Z M28 43 h1 v1 h-1Z M40 43 h1 v1 h-1Z M44 43 h1 v1 h-1Z M24 44 h5 v1 h-5Z M40 44 h5 v1 h-5Z " /><path class="qr-3072 " stroke="transparent" fill="#000" fill-opacity="1" d="M12 10 h1 v1 h-1Z M14 10 h1 v1 h-1Z M16 10 h1 v1 h-1Z M18 10 h1 v1 h-1Z M20 10 h1 v1 h-1Z M22 10 h1 v1 h-1Z M30 10 h1 v1 h-1Z M32 10 h1 v1 h-1Z M34 10 h1 v1 h-1Z M36 10 h1 v1 h-1Z M38 10 h1 v1 h-1Z M40 10 h1 v1 h-1Z M10 12 h1 v1 h-1Z M10 14 h1 v1 h-1Z M10 16 h1 v1 h-1Z M10 18 h1 v1 h-1Z M10 20 h1 v1 h-1Z M10 22 h1 v1 h-1Z M10 30 h1 v1 h-1Z M10 32 h1 v1 h-1Z M10 34 h1 v1 h-1Z M10 36 h1 v1 h-1Z M10 38 h1 v1 h-1Z M10 40 h1 v1 h-1Z " /><path class="qr-3584 " stroke="transparent" fill="#000" fill-opacity="1" d="M12 5 h1 v1 h-1Z M12 7 h1 v1 h-1Z M12 9 h1 v1 h-1Z M4 12 h5 v1 h-5Z M11 12 h2 v1 h-2Z M41 12 h1 v1 h-1Z M43 12 h1 v1 h-1Z M45 12 h1 v1 h-1Z M47 12 h1 v1 h-1Z M12 42 h1 v1 h-1Z M12 44 h1 v1 h-1Z M12 45 h1 v1 h-1Z M12 46 h1 v1 h-1Z M12 47 h1 v1 h-1Z M12 48 h1 v1 h-1Z " /><path class="qr-4096 " stroke="transparent" fill="#000" fill-opacity="1" d="M40 4 h1 v1 h-1Z M39 5 h1 v1 h-1Z M39 6 h1 v1 h-1Z M39 7 h2 v1 h-2Z M38 8 h3 v1 h-3Z M8 38 h1 v1 h-1Z M5 39 h4 v1 h-4Z M4 40 h1 v1 h-1Z M7 40 h2 v1 h-2Z " /><path class="qr-5632 " stroke="transparent" fill="#000" fill-opacity="1" d="M6 6 h3 v1 h-3Z M44 6 h3 v1 h-3Z M6 7 h3 v1 h-3Z M44 7 h3 v1 h-3Z M6 8 h3 v1 h-3Z M44 8 h3 v1 h-3Z M6 44 h3 v1 h-3Z M6 45 h3 v1 h-3Z M6 46 h3 v1 h-3Z " /></svg>
